<svg height="445pt" viewBox="0 -42 445.818 445" width="445pt" xmlns="http://www.w3.org/2000/svg"><path d="m206.359375 313.378906c12.191406-12.1875 14.070313-31.289062 4.496094-45.621094-9.578125-14.332031-27.945313-19.902343-43.871094-13.308593-15.925781 6.597656-24.972656 23.523437-21.609375 40.429687s18.199219 29.082032 35.4375 29.082032c9.585938.027343 18.789062-3.785157 25.546875-10.582032zm0 0"/><path d="m312.96875 206.769531c14.109375-14.109375 14.109375-36.984375 0-51.09375-14.113281-14.109375-36.988281-14.109375-51.097656 0s-14.109375 36.984375-.003906 51.09375c14.121093 14.089844 36.980468 14.089844 51.101562 0zm0 0"/><path d="m205.859375 99.660156c14.113281-14.109375 14.109375-36.984375 0-51.097656-14.109375-14.109375-36.988281-14.109375-51.097656 0-14.109375 14.113281-14.109375 36.988281 0 51.097656 6.742187 6.835938 15.945312 10.683594 25.550781 10.683594 9.601562 0 18.804688-3.847656 25.546875-10.683594zm0 0"/><path d="m73.703125 144.605469c-17.226563.011719-32.046875 12.191406-35.398437 29.089843-3.351563 16.898438 5.703124 33.8125 21.625 40.394532 15.917968 6.585937 34.273437 1.003906 43.839843-13.324219 9.5625-14.332031 7.671875-33.421875-4.515625-45.597656-6.773437-6.777344-15.96875-10.582031-25.550781-10.5625zm0 0"/><path d="m180.3125 156.066406c-11.996094.011719-22.3125 8.492188-24.648438 20.257813-2.332031 11.765625 3.972657 23.542969 15.058594 28.125 11.085938 4.585937 23.863282.703125 30.523438-9.277344 6.660156-9.976563 5.347656-23.265625-3.140625-31.746094-4.714844-4.722656-11.117188-7.371093-17.792969-7.359375zm0 0"/><path d="m409.816406 306.003906h36v56h-36zm0 0"/><path d="m359.816406 306.003906h36v56h-36zm0 0"/><path d="m295.816406 337.75c-13 9.652344-27.648437 17.253906-42.964844 24.253906h42.964844zm0 0"/><path d="m309.816406 326.417969v35.585937h36v-56h-15.972656c-6.328125 7.136719-13.011719 13.949219-20.027344 20.414063zm0 0"/><path d="m361.125 180.972656c0-99.5625-81-180.5625-180.5625-180.5625s-180.5625 81-180.5625 180.5625c0 99.558594 81 180.558594 180.5625 180.558594s180.5625-81 180.5625-180.558594zm-109.152344-35.203125c16.910156-16.910156 43.414063-19.519531 63.300782-6.234375 19.886718 13.289063 27.617187 38.773438 18.464843 60.867188-9.152343 22.097656-32.640625 34.652344-56.097656 29.984375-23.457031-4.664063-40.351563-25.25-40.351563-49.167969.007813-13.292969 5.289063-26.042969 14.683594-35.445312zm-142.820312 70.402344c-19.578125 19.574219-51.320313 19.574219-70.898438-.003906-19.574218-19.578125-19.574218-51.316407 0-70.894531 19.578125-19.578126 51.320313-19.578126 70.898438-.003907 9.4375 9.382813 14.746094 22.140625 14.746094 35.449219s-5.308594 26.070312-14.746094 35.453125zm35.710937-177.507813c19.574219-19.554687 51.292969-19.542968 70.851563.023438 19.5625 19.566406 19.5625 51.285156 0 70.851562-19.558594 19.570313-51.277344 19.578126-70.851563.023438-9.484375-9.355469-14.824219-22.125-14.824219-35.449219s5.339844-26.089843 14.824219-35.449219zm74.613281 142.558594c0 18.683594-13.199218 34.769532-31.523437 38.414063-18.328125 3.644531-36.675781-6.164063-43.828125-23.425781-7.148438-17.261719-1.109375-37.175782 14.425781-47.554688 15.535157-10.382812 36.242188-8.34375 49.457031 4.871094 7.367188 7.328125 11.5 17.300781 11.46875 27.695312zm-74.113281 71.160156c19.578125-19.578124 51.320313-19.578124 70.898438 0 19.578125 19.578126 19.578125 51.320313 0 70.898438s-51.320313 19.578125-70.898438 0c-19.546875-19.589844-19.546875-51.308594 0-70.898438zm0 0"/></svg>